<svg width="917" height="600" viewBox="0 0 917 600" fill="none" xmlns="http://www.w3.org/2000/svg">
<g clip-path="url(#clip0_1674_4370)">
<path d="M47.032 555.233C50.7473 556.566 54.7475 556.899 58.6321 556.2C62.5168 555.5 66.1494 553.792 69.1663 551.247C76.919 544.596 79.3497 533.637 81.3274 523.491C83.2774 513.486 85.2273 503.482 87.1772 493.478L74.93 502.098C66.1225 508.298 57.1166 514.695 51.0184 523.675C44.9202 532.654 42.2583 544.912 47.158 554.628" fill="#E6E6E6"/>
<path d="M48.0789 591.57C46.8393 582.34 45.5647 572.991 46.4341 563.663C47.2063 555.378 49.679 547.286 54.713 540.651C57.3727 537.147 60.6243 534.135 64.321 531.751C65.2817 531.131 66.1661 532.688 65.2095 533.305C58.801 537.464 53.8719 543.544 51.1272 550.674C48.0613 558.645 47.569 567.334 48.0973 575.802C48.4168 580.923 49.094 586.01 49.7763 591.091C49.8313 591.319 49.7986 591.559 49.6847 591.764C49.5709 591.969 49.3841 592.124 49.1616 592.198C49.0492 592.228 48.932 592.236 48.8167 592.22C48.7014 592.205 48.5903 592.167 48.4897 592.109C48.3891 592.05 48.301 591.972 48.2305 591.88C48.16 591.787 48.1085 591.682 48.0789 591.57Z" fill="#F2F2F2"/>
<path d="M60.0186 575.237C61.5834 577.696 63.7624 579.705 66.3406 581.065C68.9187 582.426 71.807 583.09 74.7204 582.994C82.1627 582.633 88.3672 577.323 93.9524 572.282L110.472 557.372L99.5389 556.837C91.6762 556.453 83.6106 556.094 76.1216 558.572C68.6327 561.051 61.7259 567.016 60.3565 574.94" fill="#E6E6E6"/>
<path d="M44.5759 596.876C50.5422 586.084 57.4626 574.09 69.8281 570.257C73.2618 569.195 76.8699 568.815 80.4496 569.136C81.5773 569.235 81.2957 571.012 80.17 570.913C74.1574 570.408 68.1583 572.031 63.2198 575.497C58.4405 578.823 54.7192 583.446 51.5696 588.349C49.6404 591.352 47.9123 594.482 46.1839 597.608C45.6315 598.607 44.017 597.886 44.5759 596.876Z" fill="#F2F2F2"/>
<path d="M361.539 274.327C362.924 277.191 363.135 280.483 362.127 283.5C361.118 286.518 358.97 289.021 356.14 290.477C355.561 290.763 354.958 291 354.34 291.186L352.32 333.769L334.826 320.692L339.426 282.259C338.841 279.635 339.143 276.89 340.286 274.456C341.429 272.022 343.347 270.035 345.74 268.808C347.136 268.114 348.657 267.705 350.213 267.608C351.77 267.51 353.33 267.724 354.802 268.238C356.275 268.753 357.629 269.556 358.786 270.602C359.943 271.647 360.879 272.914 361.539 274.327Z" fill="#9E616A"/>
<path d="M387.107 581.141L398.416 578.857L395.18 533.181L378.488 536.551L387.107 581.141Z" fill="#9E616A"/>
<path d="M383.493 577.949L405.765 573.451L405.766 573.451C407.632 573.07 409.556 573.07 411.422 573.452C413.287 573.835 415.057 574.59 416.623 575.674C419.836 577.877 422.045 581.264 422.763 585.093L422.854 585.565L386.389 592.93L383.493 577.949Z" fill="#2F2E41"/>
<path d="M347.458 587.833H358.986L364.47 542.381H347.456L347.458 587.833Z" fill="#9E616A"/>
<path d="M344.518 583.986L367.221 583.985C369.129 583.984 371.019 584.366 372.777 585.111C374.534 585.855 376.124 586.945 377.451 588.317C380.184 591.11 381.707 594.867 381.689 598.774V599.255L344.519 599.256L344.518 583.986Z" fill="#2F2E41"/>
<path d="M191.116 490.304C178.32 490.298 167.952 479.689 167.958 466.609C167.959 463.455 168.578 460.332 169.779 457.417L173.192 458.892C171.172 463.731 171.128 469.168 173.068 474.039C175.008 478.91 178.777 482.828 183.57 484.955C185.897 485.959 188.401 486.49 190.936 486.516C193.471 486.541 195.985 486.061 198.332 485.104L199.707 488.622C196.98 489.737 194.062 490.308 191.116 490.304Z" fill="#3F3D56"/>
<path d="M226.78 489.83H198.064V482.256L221.222 475.627L226.78 489.83Z" fill="#3F3D56"/>
<path d="M216.59 482.255H292.548C292.594 486.478 290.961 490.546 288.008 493.565C285.055 496.583 281.024 498.306 276.801 498.353H232.338C228.115 498.306 224.084 496.583 221.13 493.565C218.177 490.546 216.544 486.478 216.59 482.255Z" fill="#3F3D56"/>
<path d="M299.71 491.832H215.416C212.445 491.767 209.618 490.541 207.541 488.417C205.463 486.293 204.3 483.441 204.3 480.47C204.3 477.499 205.463 474.646 207.541 472.522C209.618 470.398 212.445 469.172 215.416 469.107H299.71C302.681 469.172 305.507 470.398 307.585 472.522C309.663 474.646 310.826 477.499 310.826 480.47C310.826 483.441 309.663 486.293 307.585 488.417C305.507 490.541 302.681 491.767 299.71 491.832Z" fill="#CACACA"/>
<path d="M354.143 316.071L353.982 323.724L353.268 358.097C353.247 360.371 352.777 362.619 351.887 364.712C350.997 366.805 349.702 368.702 348.078 370.294C346.454 371.886 344.532 373.143 342.422 373.992C340.312 374.841 338.055 375.266 335.781 375.243C331.593 375.147 327.589 373.503 324.543 370.627L276.63 324.548C274.733 322.765 273.243 320.593 272.263 318.181C271.282 315.768 270.834 313.173 270.949 310.572C271.064 307.971 271.74 305.425 272.93 303.109C274.119 300.793 275.795 298.761 277.842 297.152C281.29 294.451 285.636 293.166 289.998 293.557C294.36 293.947 298.409 295.985 301.322 299.255L332.965 335.65L336.005 312.779L354.143 316.071Z" fill="#E6E6E6"/>
<path d="M365.911 569.13L343.259 571.235L330.903 479.667C290.176 486.671 251.753 488.915 218.519 480.442C213.063 479.001 208.393 475.472 205.518 470.616C202.643 465.761 201.795 459.969 203.156 454.493C203.285 453.955 203.435 453.423 203.604 452.897C207.582 440.762 214.59 427.759 222.793 414.412L277.363 434.41L279.422 442.83L337.628 435.298C340.44 434.962 343.291 435.186 346.016 435.956C348.742 436.727 351.288 438.029 353.507 439.788C355.727 441.547 357.576 443.728 358.949 446.205C360.322 448.682 361.191 451.407 361.506 454.221C361.584 454.853 361.635 455.487 361.659 456.124L365.911 569.13Z" fill="#2F2E41"/>
<path d="M400.348 549.847L377.697 551.952L336.625 467.959C295.897 474.963 257.474 477.207 224.24 468.734C218.784 467.293 214.114 463.764 211.24 458.908C208.365 454.053 207.516 448.261 208.877 442.785C209.007 442.247 209.156 441.715 209.326 441.189C213.304 429.054 220.311 416.051 228.514 402.704L291.836 408.032L285.144 431.122L343.35 423.59C346.162 423.254 349.013 423.478 351.738 424.248C354.464 425.019 357.009 426.321 359.229 428.08C361.448 429.839 363.298 432.02 364.671 434.497C366.043 436.974 366.912 439.699 367.227 442.513C367.306 443.145 367.357 443.779 367.381 444.416L400.348 549.847Z" fill="#2F2E41"/>
<path d="M293.618 280.359C308.972 280.359 321.418 267.636 321.418 251.941C321.418 236.247 308.972 223.524 293.618 223.524C278.265 223.524 265.818 236.247 265.818 251.941C265.818 267.636 278.265 280.359 293.618 280.359Z" fill="#9E616A"/>
<path d="M325.363 298.702C325.087 299.208 325.018 299.803 325.17 300.359C325.323 300.916 325.685 301.392 326.182 301.687C326.925 301.779 344.394 313.045 344.893 311.755C345.169 311.674 345.426 311.538 345.648 311.356C345.871 311.174 346.055 310.949 346.19 310.695L374.304 258.072C374.458 257.784 374.547 257.465 374.564 257.138C374.582 256.811 374.527 256.485 374.405 256.181C375.182 254.825 355.025 249.625 354.337 249.218C353.866 249.075 353.36 249.099 352.906 249.288C352.451 249.477 352.076 249.818 351.846 250.253L325.363 298.702Z" fill="#3F3D56"/>
<path d="M370.266 256.962C370.266 256.962 353.395 252.213 353.679 252.011C353.222 251.993 352.301 251.333 352.007 252.013L326.966 298.163C325.889 299.169 343.589 307.387 343.739 307.875C345.137 308.755 369.858 258.085 370.621 257.825C370.695 257.685 370.712 257.522 370.667 257.37C370.623 257.218 370.521 257.089 370.383 257.011C370.346 256.991 370.307 256.974 370.266 256.962Z" fill="#1E1E1E"/>
<path d="M309.177 296.038C309.426 295.404 309.591 294.739 309.665 294.062C309.897 292.085 309.338 290.097 308.109 288.532C306.881 286.966 305.083 285.95 303.108 285.705L290.184 284.253C289.206 284.154 288.219 284.248 287.278 284.531C286.337 284.814 285.461 285.281 284.701 285.904C283.941 286.527 283.312 287.294 282.85 288.161C282.388 289.028 282.102 289.978 282.008 290.956C281.819 292.691 282.225 294.438 283.162 295.91C276.536 296.638 270.268 299.291 265.132 303.54C259.995 307.789 256.216 313.449 254.26 319.821C241.49 343.552 232.299 370.999 227.974 403.512L285.352 430.758L307.206 384.019L311.603 377.119C312.46 376.208 313.279 375.299 314.054 374.373C318.581 369.254 322.212 363.408 324.795 357.082C326.596 352.548 327.654 347.753 327.929 342.882C328.805 327.3 321.496 311.684 309.177 296.038Z" fill="#E4E4E4"/>
<path opacity="0.2" d="M324.795 357.082C322.212 363.408 318.581 369.254 314.054 374.373C313.279 375.299 312.46 376.208 311.603 377.119L307.206 384.018C290.995 371.868 277.86 324.028 277.86 324.028L296.151 320.47L324.795 357.082Z" fill="black"/>
<path d="M335.868 283.014C334.266 285.765 333.801 289.032 334.572 292.121C335.343 295.209 337.288 297.875 339.995 299.551C340.55 299.883 341.132 300.169 341.735 300.405L340.44 343.017L358.895 331.401L357.295 292.716C358.08 290.142 357.991 287.38 357.041 284.862C356.092 282.344 354.335 280.211 352.046 278.795C350.712 277.989 349.231 277.458 347.688 277.233C346.146 277.009 344.574 277.096 343.066 277.489C341.558 277.882 340.144 278.574 338.908 279.523C337.671 280.472 336.638 281.659 335.868 283.014Z" fill="#9E616A"/>
<path d="M338.819 326.932L359.113 329.818L358.24 371.842C358.19 374.84 357.374 377.775 355.869 380.368C354.364 382.962 352.221 385.128 349.644 386.66C346.495 388.512 342.829 389.291 339.199 388.879C335.569 388.467 332.171 386.886 329.518 384.375L281.605 338.292C278.234 335.094 276.216 330.727 275.967 326.087C275.718 321.447 277.257 316.888 280.266 313.348C281.755 311.586 283.583 310.14 285.642 309.097C287.701 308.055 289.948 307.436 292.25 307.279C294.552 307.121 296.863 307.427 299.044 308.18C301.226 308.932 303.234 310.115 304.95 311.658C305.423 312.082 305.874 312.53 306.299 313.002L337.936 349.395L338.819 326.932Z" fill="#E6E6E6"/>
<path d="M172.804 468.16C168.087 468.102 163.584 466.175 160.285 462.803C156.985 459.43 155.158 454.887 155.204 450.169V348.851C155.153 346.507 155.57 344.177 156.431 341.996C157.292 339.816 158.58 337.83 160.22 336.154C161.859 334.478 163.817 333.146 165.978 332.237C168.139 331.328 170.46 330.86 172.804 330.86C175.149 330.86 177.47 331.328 179.631 332.237C181.792 333.146 183.75 334.478 185.389 336.154C187.028 337.83 188.317 339.816 189.178 341.996C190.039 344.177 190.456 346.507 190.405 348.851V450.169C190.451 454.887 188.624 459.43 185.324 462.803C182.025 466.175 177.522 468.102 172.804 468.16Z" fill="#CACACA"/>
<path d="M283.285 586.947H261.98V494.2H254.569V586.947H233.264C230.035 586.983 226.952 588.3 224.694 590.608C222.436 592.917 221.187 596.027 221.222 599.256L295.327 599.256C295.362 596.027 294.114 592.917 291.855 590.608C289.597 588.3 286.514 586.983 283.285 586.947Z" fill="#3F3D56"/>
<path d="M317.795 219.739C311.855 216.244 304.625 216.236 297.772 216.324C292.807 216.387 287.842 216.45 282.876 216.513C276.85 216.59 270.488 216.761 265.354 219.989C260.22 223.216 257.109 230.654 260.499 235.749C250.418 226.794 235.319 225.38 222.683 229.797C216.499 231.959 210.647 235.468 206.446 240.586C201.884 246.146 199.509 253.305 198.554 260.497C197.599 267.688 197.972 274.986 198.346 282.233C198.582 286.79 199.099 291.93 202.606 294.752C205.843 297.356 210.585 296.963 214.344 295.242C220.897 292.241 225.429 285.952 228.815 279.478C232.203 273.005 234.785 266.045 239.002 260.103C243.22 254.161 249.582 249.191 256.763 249.106C251.88 256.188 250.988 266.481 256.092 273.399C259.762 278.374 265.886 280.957 271.948 281.613C278.009 282.269 284.109 281.226 290.119 280.187C294.189 279.483 298.974 278.191 300.321 274.203C301.642 270.293 298.81 266.343 297.599 262.396C295.26 254.778 300.058 245.673 307.567 243.477L306.955 242.873C313.173 243.759 320.621 242.937 323.931 237.484C327.545 231.531 323.735 223.233 317.795 219.739Z" fill="#2F2E41"/>
<path d="M916.223 28.5748H381.224C381.016 28.5707 380.818 28.4853 380.672 28.3369C380.527 28.1885 380.445 27.9889 380.445 27.781C380.445 27.5732 380.527 27.3736 380.672 27.2252C380.818 27.0768 381.016 26.9914 381.224 26.9873H916.223C916.431 26.9914 916.629 27.0768 916.775 27.2252C916.92 27.3736 917.002 27.5732 917.002 27.781C917.002 27.9889 916.92 28.1885 916.775 28.3369C916.629 28.4853 916.431 28.5707 916.223 28.5748Z" fill="#CACACA"/>
<path d="M398.701 17.4622C403.418 17.4622 407.242 13.5532 407.242 8.73111C407.242 3.90905 403.418 0 398.701 0C393.984 0 390.16 3.90905 390.16 8.73111C390.16 13.5532 393.984 17.4622 398.701 17.4622Z" fill="#3F3D56"/>
<path d="M428.207 17.4622C432.925 17.4622 436.749 13.5532 436.749 8.73111C436.749 3.90905 432.925 0 428.207 0C423.49 0 419.666 3.90905 419.666 8.73111C419.666 13.5532 423.49 17.4622 428.207 17.4622Z" fill="#3F3D56"/>
<path d="M457.714 17.4622C462.431 17.4622 466.255 13.5532 466.255 8.73111C466.255 3.90905 462.431 0 457.714 0C452.996 0 449.172 3.90905 449.172 8.73111C449.172 13.5532 452.996 17.4622 457.714 17.4622Z" fill="#3F3D56"/>
<path d="M898.544 5.34048H877.579C877.164 5.33132 876.769 5.16004 876.479 4.86333C876.189 4.56662 876.026 4.16805 876.026 3.753C876.026 3.33794 876.189 2.93939 876.479 2.64267C876.769 2.34596 877.164 2.17469 877.579 2.16553H898.544C898.959 2.17469 899.354 2.34596 899.645 2.64267C899.935 2.93939 900.097 3.33794 900.097 3.753C900.097 4.16805 899.935 4.56662 899.645 4.86333C899.354 5.16004 898.959 5.33132 898.544 5.34048Z" fill="#3F3D56"/>
<path d="M898.544 11.2936H877.579C877.164 11.2844 876.769 11.1132 876.479 10.8165C876.189 10.5197 876.026 10.1212 876.026 9.70614C876.026 9.29108 876.189 8.89251 876.479 8.5958C876.769 8.29909 877.164 8.12781 877.579 8.11865H898.544C898.959 8.12781 899.354 8.29909 899.645 8.5958C899.935 8.89251 900.097 9.29108 900.097 9.70614C900.097 10.1212 899.935 10.5197 899.645 10.8165C899.354 11.1132 898.959 11.2844 898.544 11.2936Z" fill="#3F3D56"/>
<path d="M898.544 17.2467H877.579C877.164 17.2376 876.769 17.0663 876.479 16.7696C876.189 16.4729 876.026 16.0743 876.026 15.6593C876.026 15.2442 876.189 14.8456 876.479 14.5489C876.769 14.2522 877.164 14.0809 877.579 14.0718H898.544C898.959 14.0809 899.354 14.2522 899.645 14.5489C899.935 14.8456 900.097 15.2442 900.097 15.6593C900.097 16.0743 899.935 16.4729 899.645 16.7696C899.354 17.0663 898.959 17.2376 898.544 17.2467Z" fill="#3F3D56"/>
<path d="M811.387 279.158H465.443C463.725 279.137 462.087 278.436 460.886 277.208C459.685 275.981 459.02 274.327 459.036 272.61V117.419C459.02 115.702 459.685 114.048 460.886 112.82C462.087 111.593 463.725 110.891 465.443 110.87H811.387C813.104 110.891 814.743 111.593 815.944 112.82C817.145 114.048 817.81 115.702 817.793 117.419V272.61C817.81 274.327 817.145 275.981 815.944 277.208C814.743 278.436 813.104 279.137 811.387 279.158Z" fill="#1E1E1E"/>
<path d="M535.894 164.963C534.732 164.988 533.626 165.468 532.813 166.299C532 167.13 531.544 168.246 531.544 169.409C531.544 170.571 532 171.688 532.813 172.519C533.626 173.35 534.732 173.829 535.894 173.855H740.935C742.096 173.827 743.2 173.347 744.011 172.516C744.822 171.685 745.276 170.57 745.276 169.409C745.276 168.248 744.822 167.133 744.011 166.302C743.2 165.471 742.096 164.991 740.935 164.963L535.894 164.963Z" fill="white"/>
<path d="M535.894 190.725C534.733 190.752 533.629 191.233 532.818 192.064C532.007 192.894 531.553 194.009 531.553 195.171C531.553 196.332 532.007 197.447 532.818 198.278C533.629 199.108 534.733 199.589 535.894 199.617H740.935C742.096 199.589 743.2 199.108 744.011 198.278C744.822 197.447 745.277 196.332 745.277 195.171C745.277 194.009 744.822 192.894 744.011 192.064C743.2 191.233 742.096 190.752 740.935 190.725H535.894Z" fill="white"/>
<path d="M535.894 216.173C534.732 216.199 533.626 216.679 532.813 217.51C532 218.341 531.544 219.457 531.544 220.619C531.544 221.782 532 222.898 532.813 223.729C533.626 224.56 534.732 225.04 535.894 225.065H624.124C625.286 225.04 626.392 224.56 627.205 223.729C628.018 222.898 628.473 221.782 628.473 220.619C628.473 219.457 628.018 218.341 627.205 217.51C626.392 216.679 625.286 216.199 624.124 216.173H535.894Z" fill="white"/>
<path d="M812.023 295.881C826.436 295.881 838.119 283.938 838.119 269.206C838.119 254.473 826.436 242.53 812.023 242.53C797.611 242.53 785.927 254.473 785.927 269.206C785.927 283.938 797.611 295.881 812.023 295.881Z" fill="#3F3D56"/>
<path d="M809.848 281.001L801.565 270.115L806.382 266.285L810.304 271.439L823.552 257.144L827.983 261.434L809.848 281.001Z" fill="white"/>
<path d="M600.702 600H1.10301C0.808087 599.994 0.527345 599.872 0.320972 599.662C0.114599 599.451 -0.000976562 599.168 -0.000976562 598.873C-0.000976562 598.578 0.114599 598.294 0.320972 598.084C0.527345 597.873 0.808087 597.751 1.10301 597.745H600.702C600.997 597.751 601.278 597.873 601.484 598.084C601.691 598.294 601.806 598.578 601.806 598.873C601.806 599.168 601.691 599.451 601.484 599.662C601.278 599.872 600.997 599.994 600.702 600Z" fill="#CACACA"/>
</g>
<defs>
<clipPath id="clip0_1674_4370">
<rect width="917" height="600" fill="white"/>
</clipPath>
</defs>
</svg>
