<svg width="657" height="474" viewBox="0 0 657 474" fill="none" xmlns="http://www.w3.org/2000/svg">
<g clip-path="url(#clip0_1685_3475)">
<path d="M515.81 42.5967C514.156 30.4601 512.08 17.4298 503.52 8.66861C500.804 5.88871 497.553 3.68764 493.963 2.19808C490.374 0.708513 486.519 -0.0386825 482.633 0.00154186C478.747 0.0417662 474.909 0.868585 471.351 2.43213C467.792 3.99567 464.588 6.26357 461.93 9.09909C455.699 15.7464 452.947 25.0804 452.695 34.1881C452.443 43.2958 454.472 52.3024 456.722 61.1314C468.63 61.3693 480.45 59.0427 491.38 54.3096C494.059 53.0021 496.837 51.9112 499.69 51.0472C502.577 50.3123 504.636 52.1617 507.322 53.4512L508.796 50.628C510.003 52.8742 513.741 52.2084 515.096 50.0487C516.452 47.889 516.155 45.1232 515.81 42.5967Z" fill="#2F2E41"/>
<path d="M466.073 93.8408L469.521 76.2273L443.668 65.0348L397.449 42.8918C397.127 40.8371 396.188 38.9287 394.758 37.4189C393.328 35.9091 391.473 34.8691 389.438 34.4365C387.404 34.004 385.286 34.1992 383.365 34.9963C381.444 35.7934 379.811 37.155 378.68 38.9008C377.55 40.6466 376.977 42.6944 377.035 44.7734C377.094 46.8523 377.783 48.8644 379.01 50.5435C380.237 52.2225 381.946 53.4894 383.908 54.1766C385.871 54.8638 387.997 54.9388 390.003 54.3918L434.011 81.5503L466.073 93.8408Z" fill="#FFB8B8"/>
<path d="M448.719 90.8605L467.444 71.7188L467.814 71.8314C468.047 71.9019 491.312 78.9944 506.143 86.2018C507.82 86.9543 509.312 88.0634 510.515 89.4517C511.719 90.8401 512.605 92.4743 513.112 94.2404C513.851 96.7133 513.851 99.3479 513.112 101.821C512.374 104.294 510.93 106.497 508.957 108.161C506.929 109.976 504.421 111.169 501.732 111.597C499.044 112.025 496.29 111.67 493.798 110.574L448.719 90.8605Z" fill="#1E1E1E"/>
<path d="M448.66 175.017L501.314 189.087L511.947 139.346L463.618 124.387L448.66 175.017Z" fill="#FFB8B8"/>
<path d="M507.209 161.516L455.772 149.687L445.923 125.815C445.121 122.407 445.316 118.841 446.483 115.541C447.651 112.241 449.743 109.346 452.509 107.201L471.302 91.3346L481.376 78.4651L480.28 71.645C480.083 70.2819 480.369 68.8931 481.088 67.7186C481.807 66.544 482.914 65.6576 484.217 65.2125L497.644 60.3975C499.129 59.8424 500.768 59.8722 502.232 60.4807C503.695 61.0891 504.872 62.2309 505.525 63.6748L506.948 66.9677C506.948 66.9677 513.02 69.8248 516.443 71.432C518.204 72.2329 519.777 73.3967 521.057 74.8474C522.338 76.2981 523.298 78.0029 523.874 79.8502C529.113 96.7823 527.7 115.075 519.924 131.002L507.209 161.516Z" fill="#1E1E1E"/>
<path d="M49.7682 414.93L24.8984 408.275C21.2416 395.258 20.8176 381.545 23.6633 368.327C34.5133 389.775 63.6531 393.819 80.9156 410.544C86.2596 415.802 90.352 422.195 92.8894 429.25C95.4269 436.304 96.3443 443.839 95.5738 451.296L101.531 468.556C89.4387 468.078 77.5933 464.983 66.8115 459.486C56.0297 453.989 46.5678 446.22 39.0777 436.714C34.9286 431.34 31.4727 425.464 28.7918 419.226C39.1983 417.702 49.7682 414.93 49.7682 414.93Z" fill="#F2F2F2"/>
<path d="M358.747 473.406H114.99C108.457 473.398 102.194 470.8 97.5746 466.181C92.9553 461.561 90.357 455.298 90.3496 448.766V126.003C90.357 119.47 92.9554 113.207 97.5746 108.588C102.194 103.969 108.457 101.37 114.99 101.363H358.747C365.28 101.37 371.543 103.969 376.162 108.588C380.781 113.207 383.38 119.47 383.387 126.003V448.766C383.38 455.298 380.781 461.561 376.162 466.181C371.543 470.8 365.28 473.398 358.747 473.406Z" fill="#E6E6E6"/>
<path d="M265.711 453.427H132.123C126.175 453.421 120.472 451.055 116.266 446.848C112.06 442.642 109.694 436.94 109.688 430.991V143.777C109.694 137.829 112.06 132.126 116.266 127.92C120.472 123.714 126.175 121.348 132.123 121.342H341.612C347.56 121.348 353.262 123.714 357.468 127.92C361.674 132.126 364.04 137.829 364.047 143.777V355.091C364.018 381.163 353.648 406.158 335.212 424.593C316.777 443.028 291.782 453.398 265.711 453.427Z" fill="white"/>
<path d="M320.714 176.481H153.021C152.303 176.482 151.591 176.342 150.927 176.068C150.263 175.794 149.66 175.392 149.152 174.884C148.643 174.377 148.24 173.775 147.964 173.112C147.688 172.448 147.546 171.737 147.545 171.019C147.544 170.301 147.685 169.59 147.959 168.926C148.233 168.262 148.635 167.659 149.142 167.15C149.649 166.642 150.252 166.238 150.915 165.962C151.578 165.687 152.289 165.544 153.007 165.543H320.714C322.164 165.542 323.556 166.116 324.583 167.14C325.61 168.165 326.188 169.555 326.189 171.006C326.191 172.456 325.617 173.848 324.592 174.875C323.568 175.902 322.178 176.48 320.727 176.481H320.714Z" fill="#1E1E1E"/>
<path d="M320.715 198.092H153.022C151.571 198.092 150.18 197.516 149.155 196.49C148.129 195.465 147.553 194.074 147.553 192.623C147.553 191.173 148.129 189.781 149.155 188.756C150.18 187.73 151.571 187.154 153.022 187.154H320.715C322.165 187.154 323.557 187.73 324.582 188.756C325.608 189.781 326.184 191.173 326.184 192.623C326.184 194.074 325.608 195.465 324.582 196.49C323.557 197.516 322.165 198.092 320.715 198.092Z" fill="#1E1E1E"/>
<path d="M225.713 219.703H153.022C151.571 219.703 150.18 219.127 149.155 218.101C148.129 217.076 147.553 215.684 147.553 214.234C147.553 212.783 148.129 211.392 149.155 210.367C150.18 209.341 151.571 208.765 153.022 208.765H225.713C227.163 208.765 228.555 209.341 229.58 210.367C230.606 211.392 231.182 212.783 231.182 214.234C231.182 215.684 230.606 217.076 229.58 218.101C228.555 219.127 227.163 219.703 225.713 219.703Z" fill="#1E1E1E"/>
<path d="M320.714 264.964H153.021C151.57 264.966 150.179 264.392 149.152 263.367C148.125 262.343 147.547 260.953 147.545 259.502C147.543 258.052 148.118 256.66 149.142 255.633C150.166 254.606 151.557 254.028 153.007 254.026H320.714C322.164 254.025 323.556 254.599 324.583 255.623C325.61 256.648 326.188 258.038 326.189 259.489C326.191 260.939 325.617 262.331 324.592 263.358C323.568 264.385 322.178 264.963 320.727 264.964H320.714Z" fill="#E4E4E4"/>
<path d="M320.715 286.575H153.022C151.571 286.575 150.18 285.999 149.155 284.973C148.129 283.947 147.553 282.556 147.553 281.106C147.553 279.655 148.129 278.264 149.155 277.238C150.18 276.213 151.571 275.636 153.022 275.636H320.715C322.165 275.636 323.557 276.213 324.582 277.238C325.608 278.264 326.184 279.655 326.184 281.106C326.184 282.556 325.608 283.947 324.582 284.973C323.557 285.999 322.165 286.575 320.715 286.575Z" fill="#E4E4E4"/>
<path d="M225.713 308.186H153.022C151.571 308.186 150.18 307.61 149.155 306.584C148.129 305.558 147.553 304.167 147.553 302.717C147.553 301.266 148.129 299.875 149.155 298.849C150.18 297.824 151.571 297.247 153.022 297.247H225.713C227.163 297.247 228.555 297.824 229.58 298.849C230.606 299.875 231.182 301.266 231.182 302.717C231.182 304.167 230.606 305.558 229.58 306.584C228.555 307.61 227.163 308.186 225.713 308.186Z" fill="#E4E4E4"/>
<path d="M320.714 353.447H153.021C151.57 353.449 150.179 352.874 149.152 351.85C148.125 350.826 147.547 349.435 147.545 347.985C147.543 346.534 148.118 345.143 149.142 344.116C150.166 343.089 151.557 342.511 153.007 342.509H320.714C322.164 342.507 323.556 343.082 324.583 344.106C325.61 345.13 326.188 346.521 326.189 347.971C326.191 349.422 325.617 350.813 324.592 351.84C323.568 352.867 322.178 353.445 320.727 353.447H320.714Z" fill="#E4E4E4"/>
<path d="M320.715 375.058H153.022C151.571 375.058 150.18 374.482 149.155 373.456C148.129 372.43 147.553 371.039 147.553 369.589C147.553 368.138 148.129 366.747 149.155 365.721C150.18 364.696 151.571 364.119 153.022 364.119H320.715C322.165 364.119 323.557 364.696 324.582 365.721C325.608 366.747 326.184 368.138 326.184 369.589C326.184 371.039 325.608 372.43 324.582 373.456C323.557 374.482 322.165 375.058 320.715 375.058Z" fill="#E4E4E4"/>
<path d="M225.712 396.669H153.021C151.573 396.666 150.184 396.088 149.161 395.063C148.137 394.038 147.562 392.648 147.562 391.199C147.562 389.751 148.137 388.361 149.161 387.336C150.184 386.31 151.573 385.733 153.021 385.73H225.712C227.161 385.733 228.549 386.31 229.573 387.336C230.596 388.361 231.171 389.751 231.171 391.199C231.171 392.648 230.596 394.038 229.573 395.063C228.549 396.088 227.161 396.666 225.712 396.669Z" fill="#E4E4E4"/>
<path d="M371.35 178.74C410.617 178.74 442.449 146.907 442.449 107.64C442.449 68.3729 410.617 36.5405 371.35 36.5405C332.082 36.5405 300.25 68.3729 300.25 107.64C300.25 146.907 332.082 178.74 371.35 178.74Z" fill="#1E1E1E"/>
<path opacity="0.16" d="M371.35 168.891C353.362 168.888 336.044 162.067 322.886 149.802C309.728 137.536 301.709 120.739 300.445 102.796C300.33 104.451 300.25 106.116 300.25 107.801C300.257 126.653 307.751 144.73 321.084 158.058C334.417 171.386 352.497 178.874 371.35 178.874C390.202 178.874 408.282 171.386 421.615 158.058C434.948 144.73 442.442 126.653 442.449 107.801C442.449 106.116 442.37 104.451 442.254 102.796C440.991 120.739 432.971 137.536 419.814 149.802C406.656 162.067 389.338 168.888 371.35 168.891Z" fill="#231F20"/>
<path d="M371.35 142.385C368.989 142.382 366.726 141.443 365.056 139.774C363.387 138.105 362.448 135.842 362.445 133.481V81.9599C362.444 80.7898 362.674 79.6309 363.12 78.5496C363.567 77.4682 364.223 76.4855 365.05 75.6577C365.877 74.8298 366.859 74.1731 367.94 73.7251C369.021 73.277 370.179 73.0464 371.349 73.0464C372.519 73.0464 373.678 73.277 374.759 73.7251C375.84 74.1731 376.822 74.8298 377.649 75.6577C378.476 76.4855 379.131 77.4682 379.578 78.5496C380.025 79.6309 380.255 80.7898 380.253 81.9599V133.481C380.251 135.842 379.312 138.105 377.643 139.774C375.973 141.443 373.71 142.382 371.35 142.385Z" fill="white"/>
<path d="M336.686 107.721C336.688 105.36 337.627 103.097 339.297 101.427C340.966 99.7581 343.229 98.8191 345.59 98.8164H397.111C398.281 98.8152 399.44 99.0445 400.521 99.4915C401.603 99.9384 402.585 100.594 403.413 101.421C404.241 102.248 404.898 103.23 405.346 104.311C405.794 105.392 406.024 106.55 406.024 107.72C406.024 108.891 405.794 110.049 405.346 111.13C404.898 112.211 404.241 113.193 403.413 114.02C402.585 114.847 401.603 115.503 400.521 115.949C399.44 116.396 398.281 116.626 397.111 116.625H345.59C343.229 116.622 340.966 115.683 339.297 114.014C337.627 112.345 336.688 110.081 336.686 107.721Z" fill="white"/>
<path d="M478.231 122.828L463.101 113.173L443.223 133.136L405.701 168.045C403.671 167.593 401.552 167.767 399.623 168.546C397.695 169.325 396.048 170.67 394.901 172.405C393.754 174.14 393.16 176.182 393.199 178.262C393.238 180.341 393.907 182.36 395.118 184.05C396.329 185.741 398.025 187.025 399.981 187.731C401.937 188.437 404.062 188.532 406.074 188.005C408.085 187.477 409.889 186.351 411.247 184.776C412.605 183.201 413.453 181.25 413.678 179.183L455.059 148.168L478.231 122.828Z" fill="#FFB8B8"/>
<path d="M469.105 137.888L458.145 113.457L458.385 113.154C458.536 112.963 473.651 93.9074 485.786 82.7429C487.1 81.4583 488.678 80.4758 490.41 79.8637C492.143 79.2517 493.988 79.025 495.817 79.1993C498.388 79.4183 500.84 80.3829 502.871 81.9748C504.902 83.5666 506.424 85.7166 507.251 88.161C508.198 90.7127 508.391 93.4832 507.805 96.1413C507.22 98.7995 505.881 101.233 503.949 103.15L469.105 137.888Z" fill="#1E1E1E"/>
<path d="M479.008 57.586C492.145 57.586 502.794 46.9368 502.794 33.8003C502.794 20.6639 492.145 10.0146 479.008 10.0146C465.872 10.0146 455.223 20.6639 455.223 33.8003C455.223 46.9368 465.872 57.586 479.008 57.586Z" fill="#FFB8B8"/>
<path d="M442.054 456.369H432.221L427.541 418.442H442.054V456.369Z" fill="#FFB8B8"/>
<path d="M447.244 473.406H440.192L438.933 466.748L435.71 473.406H417.007C416.111 473.406 415.238 473.119 414.516 472.588C413.793 472.057 413.26 471.309 412.993 470.453C412.726 469.597 412.74 468.678 413.033 467.831C413.325 466.983 413.88 466.251 414.618 465.742L429.554 455.427V448.697L445.263 449.634L447.244 473.406Z" fill="#2F2E41"/>
<path d="M565.294 448.015L556.158 451.652L537.783 418.145L551.267 412.777L565.294 448.015Z" fill="#FFB8B8"/>
<path d="M576.416 461.925L569.865 464.533L566.233 458.813L565.7 466.19L548.324 473.107C547.491 473.439 546.574 473.496 545.706 473.269C544.839 473.043 544.067 472.545 543.502 471.848C542.938 471.152 542.611 470.293 542.569 469.398C542.527 468.502 542.773 467.617 543.27 466.87L553.331 451.763L550.842 445.51L565.784 440.571L576.416 461.925Z" fill="#2F2E41"/>
<path d="M445.847 438.946H425.508L431.129 343.387L427.02 278.615L427.028 278.563L442.355 185.716C443.56 178.394 446.818 171.565 451.75 166.022L451.937 165.811L503.228 178.479L508.385 190.238C525.995 200.711 531.556 259.771 531.784 262.286L539.239 335.91L557.476 426.144L544.633 433.059L544.418 432.631L503.876 352.011L478.271 266.993L461.875 343.511L445.847 438.946Z" fill="#2F2E41"/>
<path d="M508.464 34.9196C507.623 29.3908 506.744 23.8157 504.766 18.6098C502.789 13.4039 499.602 8.5278 495.03 5.57873C487.791 0.909613 478.418 1.81012 470.302 4.49592C464.025 6.57301 457.898 9.73001 453.472 14.8054C449.046 19.8808 446.56 27.1229 448.206 33.7592C456.864 31.7137 465.521 29.6682 474.179 27.6227L473.231 28.2924C476.074 29.7099 478.556 31.7563 480.49 34.2764C482.423 36.7965 483.758 39.7241 484.391 42.8368C485.01 45.9873 484.921 49.2361 484.131 52.3481C483.34 55.4601 481.868 58.3574 479.82 60.8306C485.725 58.736 491.629 56.6415 497.534 54.547C501.178 53.2542 505.079 51.7645 507.24 48.4484C509.745 44.6037 509.163 39.5078 508.464 34.9196Z" fill="#2F2E41"/>
<path d="M2.22354 473.177H654.777C655.107 473.177 655.425 473.045 655.659 472.811C655.892 472.578 656.024 472.26 656.024 471.93C656.024 471.599 655.892 471.282 655.659 471.048C655.425 470.814 655.107 470.683 654.777 470.683H2.22354C1.89282 470.683 1.57565 470.814 1.3418 471.048C1.10794 471.282 0.976562 471.599 0.976562 471.93C0.976562 472.26 1.10794 472.578 1.3418 472.811C1.57565 473.045 1.89282 473.177 2.22354 473.177Z" fill="#CCCCCC"/>
</g>
<defs>
<clipPath id="clip0_1685_3475">
<rect width="655.047" height="473.406" fill="white" transform="translate(0.976562)"/>
</clipPath>
</defs>
</svg>
