<svg width="790" height="585" viewBox="0 0 790 585" fill="none" xmlns="http://www.w3.org/2000/svg">
<g clip-path="url(#clip0_1674_4081)">
<path d="M230.522 57.5631L238.872 70.6199L268.661 55.8447L283.977 51.1596C285.966 50.5509 287.762 49.4304 289.183 47.91C290.604 46.3897 291.602 44.5227 292.076 42.4958C292.551 40.4688 292.485 38.3528 291.886 36.3592C291.287 34.3656 290.175 32.5642 288.662 31.1351C286.42 29.0174 283.443 27.854 280.36 27.8905C277.277 27.9269 274.328 29.1604 272.137 31.3306L259.284 44.0585L230.522 57.5631Z" fill="#A0616A"/>
<path d="M244.614 70.0112L233.48 52.6021L191.267 71.183C188.236 72.5173 185.601 74.6126 183.617 77.2658C181.633 79.9189 180.368 83.0399 179.945 86.326C179.423 90.378 180.204 94.4911 182.176 98.0689C184.147 101.647 187.206 104.503 190.91 106.225L258.202 136.501C262.847 138.659 268.151 138.916 272.982 137.214C277.813 135.513 281.787 131.99 284.056 127.396C285.277 124.926 285.964 122.226 286.072 119.472C286.181 116.718 285.708 113.973 284.686 111.414C283.664 108.855 282.115 106.54 280.139 104.62C278.163 102.699 275.806 101.217 273.22 100.268L222.741 82.7857L244.614 70.0112Z" fill="#1E1E1E"/>
<path d="M690.137 365.556C690.137 360.327 688.382 356.083 686.227 356.073H98.7083C96.5434 356.083 94.7979 360.327 94.7882 365.556V580.823C94.7883 581.309 94.6077 581.777 94.2816 582.136C93.9556 582.496 93.5074 582.721 93.0244 582.768C91.4475 582.92 89.8706 583.061 88.2937 583.191C88.2547 583.191 88.2157 583.201 88.1766 583.201C87.3186 583.279 86.4604 583.337 85.6023 583.406H85.5925C85.1511 582.589 84.7148 581.766 84.2836 580.935C84.1378 580.655 84.0616 580.344 84.0615 580.028V353.253C84.0615 351.809 84.12 350.356 84.2176 348.921C84.3567 346.952 84.6009 344.991 84.9489 343.048C86.5969 333.984 90.322 327.848 94.5542 327.828H690.371C690.989 327.832 691.599 327.962 692.165 328.209C692.997 328.577 693.749 329.104 694.379 329.76C695.234 330.649 695.966 331.65 696.554 332.736C698.64 336.414 700.132 341.897 700.659 348.277C700.659 348.336 700.669 348.394 700.669 348.453C700.805 350.034 700.873 351.643 700.864 353.253L701 374.161L701.088 386.63L701.351 425.753L701.449 439.646L701.878 582.284C701.878 582.801 701.672 583.298 701.307 583.663C700.941 584.029 700.445 584.235 699.928 584.235H692.087C691.57 584.235 691.074 584.029 690.708 583.663C690.343 583.298 690.137 582.801 690.137 582.284V365.556Z" fill="#E6E6E6"/>
<path d="M98.9573 472.17L86.3164 469.898L89.0566 420.034L107.714 423.386L98.9573 472.17Z" fill="#A0616A"/>
<path d="M97.0348 485.443L58.1614 478.459L58.2496 477.967C58.9704 473.953 61.2555 470.389 64.6024 468.059C67.9493 465.73 72.0839 464.827 76.0967 465.547L76.0977 465.547L84.1656 461.433L96.4468 469.203L99.8402 469.813L97.0348 485.443Z" fill="#2F2E41"/>
<path d="M405.539 419.538H328.025C325.947 419.535 323.956 418.709 322.487 417.239C321.018 415.769 320.192 413.777 320.189 411.698V340.741C320.192 338.663 321.018 336.67 322.487 335.201C323.956 333.731 325.947 332.904 328.025 332.902H405.539C407.616 332.904 409.608 333.731 411.077 335.201C412.546 336.67 413.372 338.663 413.374 340.741V411.698C413.372 413.777 412.546 415.769 411.077 417.239C409.608 418.709 407.616 419.535 405.539 419.538Z" fill="#3F3D56"/>
<path d="M400.09 413.004H333.473C331.629 413.002 329.86 412.268 328.556 410.963C327.252 409.659 326.518 407.889 326.516 406.044V346.397C326.518 344.551 327.252 342.782 328.556 341.477C329.86 340.172 331.629 339.438 333.473 339.436H400.09C401.935 339.438 403.703 340.172 405.007 341.477C406.311 342.782 407.045 344.551 407.047 346.397V406.044C407.045 407.889 406.311 409.659 405.007 410.963C403.703 412.268 401.935 413.002 400.09 413.004Z" fill="white"/>
<path d="M393.445 356.801H340.119C339.658 356.801 339.215 356.618 338.889 356.292C338.563 355.965 338.38 355.523 338.38 355.061C338.38 354.6 338.563 354.157 338.889 353.831C339.215 353.505 339.658 353.321 340.119 353.321H393.445C393.906 353.321 394.348 353.505 394.674 353.831C395 354.157 395.184 354.6 395.184 355.061C395.184 355.523 395 355.965 394.674 356.292C394.348 356.618 393.906 356.801 393.445 356.801Z" fill="#1E1E1E"/>
<path d="M393.445 363.677H340.119C339.658 363.677 339.215 363.494 338.889 363.167C338.563 362.841 338.38 362.398 338.38 361.937C338.38 361.475 338.563 361.033 338.889 360.706C339.215 360.38 339.658 360.197 340.119 360.197H393.445C393.906 360.197 394.348 360.38 394.674 360.706C395.001 361.033 395.184 361.475 395.184 361.937C395.184 362.398 395.001 362.841 394.674 363.167C394.348 363.494 393.906 363.677 393.445 363.677Z" fill="#1E1E1E"/>
<path d="M363.234 370.552H340.119C339.658 370.552 339.215 370.369 338.889 370.043C338.563 369.716 338.38 369.274 338.38 368.812C338.38 368.351 338.563 367.908 338.889 367.582C339.215 367.256 339.658 367.072 340.119 367.072H363.234C363.696 367.072 364.138 367.256 364.464 367.582C364.79 367.908 364.974 368.351 364.974 368.812C364.974 369.274 364.79 369.716 364.464 370.043C364.138 370.369 363.696 370.552 363.234 370.552Z" fill="#1E1E1E"/>
<path d="M393.445 384.953H340.119C339.658 384.953 339.215 384.769 338.889 384.443C338.563 384.117 338.38 383.674 338.38 383.213C338.38 382.751 338.563 382.309 338.889 381.982C339.215 381.656 339.658 381.473 340.119 381.473H393.445C393.906 381.473 394.348 381.656 394.674 381.982C395 382.309 395.184 382.751 395.184 383.213C395.184 383.674 395 384.117 394.674 384.443C394.348 384.769 393.906 384.953 393.445 384.953Z" fill="#E4E4E4"/>
<path d="M393.445 391.828H340.119C339.89 391.829 339.663 391.784 339.452 391.697C339.24 391.61 339.048 391.482 338.886 391.32C338.724 391.158 338.596 390.966 338.508 390.755C338.421 390.544 338.375 390.317 338.375 390.088C338.375 389.859 338.421 389.633 338.508 389.421C338.596 389.21 338.724 389.018 338.886 388.856C339.048 388.695 339.24 388.567 339.452 388.479C339.663 388.392 339.89 388.348 340.119 388.348H393.445C393.906 388.348 394.348 388.531 394.674 388.858C395.001 389.184 395.184 389.627 395.184 390.088C395.184 390.55 395.001 390.992 394.674 391.319C394.348 391.645 393.906 391.828 393.445 391.828Z" fill="#E4E4E4"/>
<path d="M363.234 398.704H340.119C339.658 398.704 339.215 398.521 338.889 398.194C338.563 397.868 338.38 397.425 338.38 396.964C338.38 396.502 338.563 396.06 338.889 395.733C339.215 395.407 339.658 395.224 340.119 395.224H363.234C363.696 395.224 364.138 395.407 364.464 395.733C364.79 396.06 364.974 396.502 364.974 396.964C364.974 397.425 364.79 397.868 364.464 398.194C364.138 398.521 363.696 398.704 363.234 398.704Z" fill="#E4E4E4"/>
<path d="M530.489 229.995H467.183C466.288 229.996 465.429 230.354 464.797 230.988C464.164 231.622 463.81 232.482 463.811 233.378V333.433H533.871V233.378C533.871 232.934 533.784 232.494 533.614 232.083C533.444 231.673 533.195 231.3 532.881 230.985C532.567 230.671 532.194 230.422 531.784 230.252C531.373 230.082 530.933 229.995 530.489 229.995ZM499.049 286.845C497.07 286.836 495.174 286.045 493.774 284.644C492.374 283.244 491.583 281.347 491.574 279.366V267.826C491.576 265.843 492.365 263.943 493.766 262.542C495.168 261.142 497.068 260.355 499.049 260.355C501.03 260.355 502.93 261.142 504.332 262.542C505.734 263.943 506.522 265.843 506.525 267.826V279.366C506.515 281.347 505.725 283.244 504.325 284.644C502.925 286.045 501.029 286.836 499.049 286.845Z" fill="#2F2E41"/>
<path d="M463.593 330.233V339.886C463.594 340.386 463.793 340.866 464.147 341.22C464.5 341.573 464.98 341.772 465.48 341.773H532.202C532.701 341.771 533.18 341.571 533.533 341.218C533.886 340.865 534.086 340.386 534.088 339.886V330.233H463.593Z" fill="#3F3D56"/>
<path d="M635.319 73.8486H364.71C362.385 73.8523 360.156 74.778 358.512 76.4228C356.868 78.0676 355.943 80.2974 355.939 82.6235V265.323C355.941 267.649 356.866 269.88 358.51 271.525C360.155 273.17 362.384 274.095 364.71 274.097H635.319C637.644 274.095 639.874 273.17 641.518 271.525C643.162 269.88 644.087 267.649 644.089 265.323V82.6235C644.086 80.2974 643.16 78.0676 641.516 76.4228C639.872 74.778 637.644 73.8523 635.319 73.8486Z" fill="#3F3D56"/>
<path d="M633.06 80.1865H366.971C365.726 80.1892 364.533 80.6859 363.653 81.5675C362.774 82.4491 362.28 83.6436 362.28 84.8891V263.06C362.282 264.304 362.777 265.496 363.656 266.376C364.535 267.255 365.727 267.75 366.971 267.753H633.06C634.303 267.75 635.495 267.255 636.374 266.376C637.253 265.496 637.748 264.304 637.75 263.06V84.8891C637.75 83.6436 637.256 82.4491 636.377 81.5675C635.498 80.6859 634.305 80.1892 633.06 80.1865Z" fill="white"/>
<path d="M581.23 345.132H422.921C422.488 345.132 422.06 345.036 421.669 344.849C421.278 344.663 420.933 344.391 420.66 344.055C420.387 343.718 420.193 343.324 420.091 342.903C419.989 342.482 419.982 342.043 420.072 341.619L422.528 329.946C422.668 329.293 423.027 328.708 423.545 328.287C424.063 327.866 424.71 327.635 425.377 327.633H578.774C579.442 327.635 580.088 327.866 580.607 328.287C581.125 328.708 581.484 329.293 581.623 329.946L584.08 341.619C584.169 342.043 584.163 342.482 584.061 342.903C583.959 343.324 583.765 343.718 583.492 344.055C583.218 344.391 582.874 344.663 582.483 344.849C582.091 345.036 581.663 345.132 581.23 345.132Z" fill="#2F2E41"/>
<path d="M430.901 329.734H426.978C426.715 329.734 426.502 329.948 426.502 330.211V332.185C426.502 332.448 426.715 332.661 426.978 332.661H430.901C431.164 332.661 431.377 332.448 431.377 332.185V330.211C431.377 329.948 431.164 329.734 430.901 329.734Z" fill="#3F3D56"/>
<path d="M440.653 329.734H436.729C436.466 329.734 436.253 329.948 436.253 330.211V332.185C436.253 332.448 436.466 332.661 436.729 332.661H440.653C440.916 332.661 441.129 332.448 441.129 332.185V330.211C441.129 329.948 440.916 329.734 440.653 329.734Z" fill="#3F3D56"/>
<path d="M450.404 329.734H446.481C446.218 329.734 446.005 329.948 446.005 330.211V332.185C446.005 332.448 446.218 332.661 446.481 332.661H450.404C450.667 332.661 450.88 332.448 450.88 332.185V330.211C450.88 329.948 450.667 329.734 450.404 329.734Z" fill="#3F3D56"/>
<path d="M460.156 329.734H456.232C455.969 329.734 455.756 329.948 455.756 330.211V332.185C455.756 332.448 455.969 332.661 456.232 332.661H460.156C460.419 332.661 460.632 332.448 460.632 332.185V330.211C460.632 329.948 460.419 329.734 460.156 329.734Z" fill="#3F3D56"/>
<path d="M469.907 329.734H465.984C465.721 329.734 465.508 329.948 465.508 330.211V332.185C465.508 332.448 465.721 332.661 465.984 332.661H469.907C470.17 332.661 470.383 332.448 470.383 332.185V330.211C470.383 329.948 470.17 329.734 469.907 329.734Z" fill="#3F3D56"/>
<path d="M479.659 329.734H475.735C475.472 329.734 475.259 329.948 475.259 330.211V332.185C475.259 332.448 475.472 332.661 475.735 332.661H479.659C479.922 332.661 480.135 332.448 480.135 332.185V330.211C480.135 329.948 479.922 329.734 479.659 329.734Z" fill="#3F3D56"/>
<path d="M489.41 329.734H485.487C485.224 329.734 485.011 329.948 485.011 330.211V332.185C485.011 332.448 485.224 332.661 485.487 332.661H489.41C489.673 332.661 489.886 332.448 489.886 332.185V330.211C489.886 329.948 489.673 329.734 489.41 329.734Z" fill="#3F3D56"/>
<path d="M499.162 329.734H495.238C494.975 329.734 494.762 329.948 494.762 330.211V332.185C494.762 332.448 494.975 332.661 495.238 332.661H499.162C499.425 332.661 499.638 332.448 499.638 332.185V330.211C499.638 329.948 499.425 329.734 499.162 329.734Z" fill="#3F3D56"/>
<path d="M508.913 329.734H504.99C504.727 329.734 504.514 329.948 504.514 330.211V332.185C504.514 332.448 504.727 332.661 504.99 332.661H508.913C509.176 332.661 509.389 332.448 509.389 332.185V330.211C509.389 329.948 509.176 329.734 508.913 329.734Z" fill="#3F3D56"/>
<path d="M518.665 329.734H514.741C514.478 329.734 514.265 329.948 514.265 330.211V332.185C514.265 332.448 514.478 332.661 514.741 332.661H518.665C518.928 332.661 519.141 332.448 519.141 332.185V330.211C519.141 329.948 518.928 329.734 518.665 329.734Z" fill="#3F3D56"/>
<path d="M528.416 329.734H524.493C524.23 329.734 524.017 329.948 524.017 330.211V332.185C524.017 332.448 524.23 332.661 524.493 332.661H528.416C528.679 332.661 528.892 332.448 528.892 332.185V330.211C528.892 329.948 528.679 329.734 528.416 329.734Z" fill="#3F3D56"/>
<path d="M538.168 329.734H534.244C533.981 329.734 533.768 329.948 533.768 330.211V332.185C533.768 332.448 533.981 332.661 534.244 332.661H538.168C538.431 332.661 538.644 332.448 538.644 332.185V330.211C538.644 329.948 538.431 329.734 538.168 329.734Z" fill="#3F3D56"/>
<path d="M547.919 329.734H543.996C543.733 329.734 543.52 329.948 543.52 330.211V332.185C543.52 332.448 543.733 332.661 543.996 332.661H547.919C548.182 332.661 548.396 332.448 548.396 332.185V330.211C548.396 329.948 548.182 329.734 547.919 329.734Z" fill="#3F3D56"/>
<path d="M557.671 329.734H553.747C553.484 329.734 553.271 329.948 553.271 330.211V332.185C553.271 332.448 553.484 332.661 553.747 332.661H557.671C557.934 332.661 558.147 332.448 558.147 332.185V330.211C558.147 329.948 557.934 329.734 557.671 329.734Z" fill="#3F3D56"/>
<path d="M567.422 329.734H563.499C563.236 329.734 563.023 329.948 563.023 330.211V332.185C563.023 332.448 563.236 332.661 563.499 332.661H567.422C567.685 332.661 567.898 332.448 567.898 332.185V330.211C567.898 329.948 567.685 329.734 567.422 329.734Z" fill="#3F3D56"/>
<path d="M577.174 329.734H573.25C572.987 329.734 572.774 329.948 572.774 330.211V332.185C572.774 332.448 572.987 332.661 573.25 332.661H577.174C577.437 332.661 577.65 332.448 577.65 332.185V330.211C577.65 329.948 577.437 329.734 577.174 329.734Z" fill="#3F3D56"/>
<path d="M430.786 334.613H426.863C426.6 334.613 426.386 334.826 426.386 335.089V337.063C426.386 337.326 426.6 337.54 426.863 337.54H430.786C431.049 337.54 431.262 337.326 431.262 337.063V335.089C431.262 334.826 431.049 334.613 430.786 334.613Z" fill="#3F3D56"/>
<path d="M440.538 334.613H436.614C436.351 334.613 436.138 334.826 436.138 335.089V337.063C436.138 337.326 436.351 337.54 436.614 337.54H440.538C440.801 337.54 441.014 337.326 441.014 337.063V335.089C441.014 334.826 440.801 334.613 440.538 334.613Z" fill="#3F3D56"/>
<path d="M450.289 334.613H446.365C446.103 334.613 445.889 334.826 445.889 335.089V337.063C445.889 337.326 446.103 337.54 446.365 337.54H450.289C450.552 337.54 450.765 337.326 450.765 337.063V335.089C450.765 334.826 450.552 334.613 450.289 334.613Z" fill="#3F3D56"/>
<path d="M460.041 334.613H456.117C455.854 334.613 455.641 334.826 455.641 335.089V337.063C455.641 337.326 455.854 337.54 456.117 337.54H460.041C460.304 337.54 460.517 337.326 460.517 337.063V335.089C460.517 334.826 460.304 334.613 460.041 334.613Z" fill="#3F3D56"/>
<path d="M469.792 334.613H465.869C465.606 334.613 465.392 334.826 465.392 335.089V337.063C465.392 337.326 465.606 337.54 465.869 337.54H469.792C470.055 337.54 470.268 337.326 470.268 337.063V335.089C470.268 334.826 470.055 334.613 469.792 334.613Z" fill="#3F3D56"/>
<path d="M479.544 334.613H475.62C475.357 334.613 475.144 334.826 475.144 335.089V337.063C475.144 337.326 475.357 337.54 475.62 337.54H479.544C479.807 337.54 480.02 337.326 480.02 337.063V335.089C480.02 334.826 479.807 334.613 479.544 334.613Z" fill="#3F3D56"/>
<path d="M489.295 334.613H485.372C485.109 334.613 484.896 334.826 484.896 335.089V337.063C484.896 337.326 485.109 337.54 485.372 337.54H489.295C489.558 337.54 489.771 337.326 489.771 337.063V335.089C489.771 334.826 489.558 334.613 489.295 334.613Z" fill="#3F3D56"/>
<path d="M499.047 334.613H495.123C494.86 334.613 494.647 334.826 494.647 335.089V337.063C494.647 337.326 494.86 337.54 495.123 337.54H499.047C499.31 337.54 499.523 337.326 499.523 337.063V335.089C499.523 334.826 499.31 334.613 499.047 334.613Z" fill="#3F3D56"/>
<path d="M508.798 334.613H504.874C504.612 334.613 504.398 334.826 504.398 335.089V337.063C504.398 337.326 504.612 337.54 504.874 337.54H508.798C509.061 337.54 509.274 337.326 509.274 337.063V335.089C509.274 334.826 509.061 334.613 508.798 334.613Z" fill="#3F3D56"/>
<path d="M518.55 334.613H514.626C514.363 334.613 514.15 334.826 514.15 335.089V337.063C514.15 337.326 514.363 337.54 514.626 337.54H518.55C518.813 337.54 519.026 337.326 519.026 337.063V335.089C519.026 334.826 518.813 334.613 518.55 334.613Z" fill="#3F3D56"/>
<path d="M528.301 334.613H524.378C524.115 334.613 523.901 334.826 523.901 335.089V337.063C523.901 337.326 524.115 337.54 524.378 337.54H528.301C528.564 337.54 528.777 337.326 528.777 337.063V335.089C528.777 334.826 528.564 334.613 528.301 334.613Z" fill="#3F3D56"/>
<path d="M538.053 334.613H534.129C533.866 334.613 533.653 334.826 533.653 335.089V337.063C533.653 337.326 533.866 337.54 534.129 337.54H538.053C538.316 337.54 538.529 337.326 538.529 337.063V335.089C538.529 334.826 538.316 334.613 538.053 334.613Z" fill="#3F3D56"/>
<path d="M547.804 334.613H543.881C543.618 334.613 543.405 334.826 543.405 335.089V337.063C543.405 337.326 543.618 337.54 543.881 337.54H547.804C548.067 337.54 548.28 337.326 548.28 337.063V335.089C548.28 334.826 548.067 334.613 547.804 334.613Z" fill="#3F3D56"/>
<path d="M557.556 334.613H553.632C553.369 334.613 553.156 334.826 553.156 335.089V337.063C553.156 337.326 553.369 337.54 553.632 337.54H557.556C557.819 337.54 558.032 337.326 558.032 337.063V335.089C558.032 334.826 557.819 334.613 557.556 334.613Z" fill="#3F3D56"/>
<path d="M567.307 334.613H563.383C563.121 334.613 562.907 334.826 562.907 335.089V337.063C562.907 337.326 563.121 337.54 563.383 337.54H567.307C567.57 337.54 567.783 337.326 567.783 337.063V335.089C567.783 334.826 567.57 334.613 567.307 334.613Z" fill="#3F3D56"/>
<path d="M577.059 334.613H573.135C572.872 334.613 572.659 334.826 572.659 335.089V337.063C572.659 337.326 572.872 337.54 573.135 337.54H577.059C577.322 337.54 577.535 337.326 577.535 337.063V335.089C577.535 334.826 577.322 334.613 577.059 334.613Z" fill="#3F3D56"/>
<path d="M511.724 340.467H473.67C473.407 340.467 473.194 340.68 473.194 340.943V342.917C473.194 343.18 473.407 343.394 473.67 343.394H511.724C511.987 343.394 512.2 343.18 512.2 342.917V340.943C512.2 340.68 511.987 340.467 511.724 340.467Z" fill="#3F3D56"/>
<path d="M614.734 567.807L607.216 555.719L605.714 562.627C605.451 563.836 605.187 565.066 604.944 566.285C602.808 564.461 600.536 562.773 598.313 561.153C591.487 556.197 584.664 551.234 577.844 546.265L579.98 558.656C581.296 566.285 582.671 574.071 585.928 581.047C586.289 581.837 586.679 582.617 587.099 583.378H618.83C619.085 582.671 619.262 581.939 619.357 581.193C619.364 581.145 619.368 581.096 619.366 581.047C619.864 576.315 617.25 571.856 614.734 567.807Z" fill="#F0F0F0"/>
<path d="M185.668 567.807L178.15 555.719L176.648 562.627C176.385 563.836 176.121 565.066 175.878 566.285C173.742 564.461 171.47 562.773 169.247 561.153C162.421 556.197 155.598 551.234 148.778 546.265L150.914 558.656C152.23 566.285 153.605 574.071 156.862 581.047C157.223 581.837 157.613 582.617 158.032 583.378H189.764C190.019 582.671 190.196 581.939 190.29 581.193C190.298 581.145 190.302 581.096 190.3 581.047C190.798 576.315 188.184 571.856 185.668 567.807Z" fill="#F0F0F0"/>
<path d="M788.839 584.7L519.941 585C519.633 585 519.338 584.878 519.12 584.66C518.902 584.442 518.78 584.147 518.78 583.838C518.78 583.53 518.902 583.235 519.12 583.017C519.338 582.799 519.633 582.677 519.941 582.677L788.839 582.377C789.147 582.377 789.442 582.499 789.66 582.717C789.878 582.935 790 583.231 790 583.539C790 583.847 789.878 584.142 789.66 584.36C789.442 584.578 789.147 584.7 788.839 584.7Z" fill="#CACACA"/>
<path d="M619.684 104.734H370.705C370.447 104.728 370.2 104.622 370.019 104.436C369.838 104.251 369.737 104.003 369.737 103.744C369.737 103.485 369.838 103.236 370.019 103.051C370.2 102.866 370.447 102.759 370.705 102.753H619.684C619.943 102.759 620.189 102.866 620.37 103.051C620.551 103.236 620.652 103.485 620.652 103.744C620.652 104.003 620.551 104.251 620.37 104.436C620.189 104.622 619.943 104.728 619.684 104.734Z" fill="#CACACA"/>
<path d="M387.654 97.6954C390.858 97.6954 393.456 95.0382 393.456 91.7605C393.456 88.4828 390.858 85.8257 387.654 85.8257C384.449 85.8257 381.851 88.4828 381.851 91.7605C381.851 95.0382 384.449 97.6954 387.654 97.6954Z" fill="#3F3D56"/>
<path d="M407.699 97.6954C410.903 97.6954 413.501 95.0382 413.501 91.7605C413.501 88.4828 410.903 85.8257 407.699 85.8257C404.494 85.8257 401.896 88.4828 401.896 91.7605C401.896 95.0382 404.494 97.6954 407.699 97.6954Z" fill="#3F3D56"/>
<path d="M427.744 97.6954C430.949 97.6954 433.547 95.0382 433.547 91.7605C433.547 88.4828 430.949 85.8257 427.744 85.8257C424.539 85.8257 421.941 88.4828 421.941 91.7605C421.941 95.0382 424.539 97.6954 427.744 97.6954Z" fill="#3F3D56"/>
<path d="M607.615 87.2964H593.376C593.094 87.302 592.825 87.4181 592.627 87.6198C592.43 87.8215 592.319 88.0927 592.319 88.3751C592.319 88.6575 592.43 88.9287 592.627 89.1303C592.825 89.332 593.094 89.4481 593.376 89.4538H607.615C607.897 89.4481 608.166 89.332 608.364 89.1303C608.561 88.9287 608.672 88.6575 608.672 88.3751C608.672 88.0927 608.561 87.8215 608.364 87.6198C608.166 87.4181 607.897 87.302 607.615 87.2964Z" fill="#3F3D56"/>
<path d="M607.615 91.3457H593.376C593.094 91.3513 592.825 91.4675 592.627 91.6691C592.43 91.8708 592.319 92.142 592.319 92.4244C592.319 92.7068 592.43 92.978 592.627 93.1797C592.825 93.3813 593.094 93.4975 593.376 93.5031H607.615C607.897 93.4975 608.166 93.3813 608.364 93.1797C608.561 92.978 608.672 92.7068 608.672 92.4244C608.672 92.142 608.561 91.8708 608.364 91.6691C608.166 91.4675 607.897 91.3513 607.615 91.3457Z" fill="#3F3D56"/>
<path d="M607.615 95.3896H593.376C593.094 95.3953 592.825 95.5114 592.627 95.7131C592.43 95.9148 592.319 96.1859 592.319 96.4683C592.319 96.7507 592.43 97.0219 592.627 97.2236C592.825 97.4253 593.094 97.5414 593.376 97.547H607.615C607.897 97.5414 608.166 97.4253 608.364 97.2236C608.561 97.0219 608.672 96.7507 608.672 96.4683C608.672 96.1859 608.561 95.9148 608.364 95.7131C608.166 95.5114 607.897 95.3953 607.615 95.3896Z" fill="#3F3D56"/>
<path d="M515.297 158.705H484.186C481.849 158.705 479.955 160.6 479.955 162.938C479.955 165.276 481.849 167.171 484.186 167.171H515.297C517.634 167.171 519.528 165.276 519.528 162.938C519.528 160.6 517.634 158.705 515.297 158.705Z" fill="#1E1E1E"/>
<path d="M535.395 175.638H464.088C461.751 175.638 459.857 177.533 459.857 179.871C459.857 182.209 461.751 184.104 464.088 184.104H535.395C537.732 184.104 539.626 182.209 539.626 179.871C539.626 177.533 537.732 175.638 535.395 175.638Z" fill="#E6E6E6"/>
<path d="M535.395 192.57H464.088C461.751 192.57 459.857 194.466 459.857 196.804C459.857 199.142 461.751 201.037 464.088 201.037H535.395C537.732 201.037 539.626 199.142 539.626 196.804C539.626 194.466 537.732 192.57 535.395 192.57Z" fill="#E6E6E6"/>
<path d="M396.157 257.538C396.163 261.025 395.542 264.485 394.323 267.753H366.971C365.727 267.75 364.535 267.255 363.656 266.376C362.777 265.496 362.282 264.304 362.28 263.06V228.639C363.808 228.392 365.354 228.268 366.902 228.269C370.744 228.268 374.548 229.025 378.098 230.496C381.647 231.967 384.872 234.123 387.589 236.841C390.305 239.559 392.46 242.785 393.93 246.337C395.4 249.888 396.157 253.694 396.157 257.538Z" fill="#E6E6E6"/>
<path d="M342.188 284.751C341.779 296.605 316.581 328.586 303.329 333.172C301.076 333.952 299.76 334.382 299.76 334.382L295.147 332.987L239.29 316.079C229.51 321.835 200.333 324.762 176.393 326.225C157.339 327.386 141.59 327.621 141.59 327.621C135.969 370.394 124.891 411.309 106.202 449.634L83.7734 445.731L104.962 302.976C105.42 299.893 106.772 297.013 108.852 294.693C110.933 292.373 113.648 290.716 116.662 289.927L269.081 250.038C269.081 250.038 277.487 248.516 295.215 257.072C324.402 271.16 342.481 276.126 342.188 284.751Z" fill="#2F2E41"/>
<path d="M289.777 554.114L278.387 560.05L250.076 518.92L266.888 510.157L289.777 554.114Z" fill="#A0616A"/>
<path d="M296.37 565.792L261.343 584.051L261.113 583.608C259.229 579.99 258.859 575.772 260.083 571.881C261.308 567.991 264.027 564.746 267.642 562.861L271.512 554.669L285.978 553.303L289.036 551.709L296.37 565.792Z" fill="#2F2E41"/>
<path d="M313.064 282.458C318.176 293.16 310.6 333.171 300.966 343.365L298.408 345.105L297.544 345.556C291.764 365.115 229.742 422.323 229.742 422.323C250.692 449.024 263.749 481.853 272.079 518.351L253.468 526.954L185.279 425.107C183.493 422.439 182.556 419.293 182.591 416.083C182.627 412.872 183.632 409.747 185.476 407.12L213.294 367.474L258.623 279.628C291.013 278.629 309.34 274.674 313.064 282.458Z" fill="#2F2E41"/>
<path d="M340.621 288.915C242.723 274.019 233.803 260.624 232.846 260.862L231.996 261.074L246.18 237.088L251.382 230.939L247.381 228.078L248.969 216.191C250.207 211.376 251.21 205.705 250.675 204.945C249.572 203.723 247.116 201.501 247.091 201.479L246.775 201.193L250.462 192.586L255.4 123.771L268.13 98.3792L294.406 82.7944L317.566 83.0749L337.919 101.963C346.56 106.121 353.588 113.016 357.914 121.578C362.239 130.141 363.621 139.891 361.843 149.319L351.505 203.953L347.702 232.112L353.907 238.321L350.046 242.184L347.75 255.339L350.102 270.238C351.94 283.775 343.767 284.582 343.163 284.751C343.127 284.762 341.352 289.411 341.277 289.411C341.089 289.411 341.073 288.983 340.621 288.915Z" fill="#1E1E1E"/>
<path d="M335.481 343.233C336.599 342.14 337.464 340.816 338.015 339.353C338.566 337.89 338.79 336.324 338.67 334.765C338.551 333.206 338.091 331.692 337.324 330.33C336.556 328.968 335.5 327.791 334.228 326.881L344.967 290.425L326.088 296.194L318.784 329.929C317.399 332.167 316.883 334.835 317.333 337.429C317.783 340.023 319.168 342.361 321.226 344.001C323.285 345.641 325.872 346.468 328.5 346.327C331.127 346.185 333.611 345.085 335.481 343.233Z" fill="#A0616A"/>
<path d="M337.225 317.937L316.818 308.779L333.187 240.768L302.703 166.73C301.196 163.07 300.513 159.124 300.702 155.17C300.891 151.217 301.948 147.353 303.797 143.855C305.647 140.356 308.243 137.307 311.403 134.925C314.562 132.543 318.207 130.886 322.079 130.072C329.073 128.609 336.361 129.982 342.345 133.89C348.329 137.797 352.519 143.92 353.996 150.915L372.536 239.177L337.225 317.937Z" fill="#1E1E1E"/>
<path d="M256.648 58.1417L264.108 27.1033C264.364 26.0416 265.031 25.1251 265.962 24.5547C266.893 23.9844 268.012 23.8068 269.074 24.061L275.835 25.6875C276.896 25.944 277.812 26.6112 278.382 27.5426C278.952 28.4741 279.13 29.5938 278.876 30.656L271.416 61.6944C271.16 62.7561 270.493 63.6726 269.562 64.243C268.631 64.8133 267.512 64.9909 266.45 64.7367L259.689 63.1102C258.628 62.8537 257.712 62.1865 257.142 61.2551C256.572 60.3236 256.394 59.2039 256.648 58.1417Z" fill="#3F3D56"/>
<path d="M269.484 25.8344C268.912 25.6975 268.309 25.7932 267.807 26.1006C267.306 26.4079 266.946 26.9018 266.808 27.4739L259.349 58.5123C259.212 59.0847 259.308 59.6881 259.615 60.19C259.922 60.692 260.416 61.0515 260.988 61.1898L267.749 62.8163C268.321 62.9532 268.924 62.8575 269.426 62.5502C269.927 62.2428 270.287 61.7489 270.425 61.1768L277.884 30.1384C278.021 29.566 277.926 28.9626 277.618 28.4607C277.311 27.9587 276.817 27.5992 276.246 27.461L269.484 25.8344Z" fill="#1E1E1E"/>
<path d="M300.767 77.7159C319.056 77.7159 333.881 62.883 333.881 44.5857C333.881 26.2885 319.056 11.4556 300.767 11.4556C282.479 11.4556 267.654 26.2885 267.654 44.5857C267.654 62.883 282.479 77.7159 300.767 77.7159Z" fill="#A0616A"/>
<path d="M316.041 66.7376L317.233 60.0273C317.966 55.5773 317.205 51.0097 315.068 47.0387C312.931 43.0677 309.539 39.9172 305.422 38.0797L304.399 37.5848L305.242 37.1341C305.51 36.9907 305.719 36.758 305.834 36.4764C305.948 36.1947 305.96 35.8818 305.868 35.5921C305.776 35.3023 305.586 35.0539 305.33 34.89C305.074 34.726 304.769 34.6569 304.467 34.6945L303.51 34.8136C302.858 34.8935 302.196 34.783 301.605 34.4953C301.014 34.2076 300.519 33.7551 300.179 33.1922C299.84 32.6293 299.67 31.9802 299.691 31.323C299.711 30.6658 299.921 30.0286 300.296 29.4881C296.99 30.8585 293.463 31.6173 289.886 31.7276C284.71 31.6886 280.213 29.1642 278.429 25.2959C277.994 24.3342 277.727 23.3054 277.638 22.2538C272.171 24.4094 269.222 30.8711 269.192 30.9387L267.575 34.5478L268.267 30.6539C268.288 30.5352 270.405 18.7419 273.473 11.425C276.772 3.55803 290.506 -0.588428 311.138 0.0675502C331.29 0.701138 335.76 23.6896 336.144 25.9138C341.869 31.4251 339.789 41.8598 338.028 47.615C335.176 56.9355 329.549 66.2098 326.449 66.6981C326.171 66.7502 325.884 66.719 325.624 66.6084C325.364 66.4978 325.143 66.3127 324.988 66.0764C324.678 65.5826 324.266 65.1604 323.781 64.8378C323.295 64.5151 322.746 64.2993 322.171 64.2047C319.665 63.8483 317.079 65.9035 317.054 65.9239L316.041 66.7376Z" fill="#2F2E41"/>
<path d="M270.059 584.7L1.16103 585C0.853675 584.999 0.559215 584.876 0.342194 584.659C0.125173 584.441 0.0032959 584.146 0.0032959 583.838C0.0032959 583.531 0.125173 583.236 0.342194 583.018C0.559215 582.8 0.853675 582.678 1.16103 582.677L270.059 582.377C270.367 582.377 270.662 582.499 270.88 582.717C271.098 582.935 271.22 583.231 271.22 583.539C271.22 583.847 271.098 584.142 270.88 584.36C270.662 584.578 270.367 584.7 270.059 584.7Z" fill="#CACACA"/>
</g>
<defs>
<clipPath id="clip0_1674_4081">
<rect width="790" height="585" fill="white"/>
</clipPath>
</defs>
</svg>
